<?xml version="1.0" encoding="utf-8"?>
<!-- Generator: Adobe Illustrator 24.3.0, SVG Export Plug-In . SVG Version: 6.00 Build 0)  -->
<svg version="1.1" id="Layer_1" xmlns="http://www.w3.org/2000/svg" xmlns:xlink="http://www.w3.org/1999/xlink" x="0px" y="0px"
	 viewBox="0 0 2000 1600" style="enable-background:new 0 0 2000 1600;" xml:space="preserve">
<style type="text/css">
	.st0{fill:#1DAE9D;}
	.st1{fill:#414042;}
</style>
<g>
	<g>
		<path class="st0" d="M629.37,799.98c0,2.98-0.23,5.9-0.68,8.75H526.78v-17.1h101.97C629.17,794.36,629.37,797.15,629.37,799.98z"
			/>
		<path class="st0" d="M623.12,825.83c-2.68,5.22-6.17,9.96-10.28,14.08c-10.22,10.22-24.34,16.54-39.93,16.54h-46.13v-30.62H623.12
			z"/>
		<path class="st0" d="M623.33,774.53h-96.55v-31.01h46.13C594.94,743.52,614.02,756.14,623.33,774.53z"/>
		<path class="st0" d="M575.49,675.54c-68.73,0-124.45,55.72-124.45,124.46s55.72,124.46,124.45,124.46
			c68.74,0,124.46-55.72,124.46-124.46S644.23,675.54,575.49,675.54z M661.58,791.63h-14.29c0.25,2.44,0.38,4.9,0.38,7.39v1.96
			c0,2.61-0.15,5.2-0.42,7.75h14.33v17.1H643.3c-10.15,27.84-36.86,47.72-68.2,47.72h-65.81v-47.72h-19.88v-17.1h19.88v-17.1h-19.88
			v-17.1h19.88v-48.08h65.81c31.48,0,58.28,20.05,68.33,48.08h18.15V791.63z"/>
	</g>
	<g>
		<path class="st0" d="M1306.04,825.82c0,0.78-0.06,1.54-0.18,2.29h-26.69v-4.48h26.7C1305.98,824.35,1306.04,825.08,1306.04,825.82
			z"/>
		<path class="st0" d="M1304.4,832.59c-0.7,1.37-1.62,2.61-2.69,3.69c-2.68,2.68-6.37,4.33-10.46,4.33h-12.08v-8.02H1304.4z"/>
		<path class="st0" d="M1304.45,819.16h-25.28v-8.12h12.08C1297.02,811.04,1302.02,814.35,1304.45,819.16z"/>
		<path class="st0" d="M1291.93,793.24c-18,0-32.59,14.59-32.59,32.59c0,18,14.59,32.59,32.59,32.59c18,0,32.59-14.59,32.59-32.59
			C1324.52,807.83,1309.93,793.24,1291.93,793.24z M1314.47,823.64h-3.74c0.07,0.64,0.1,1.28,0.1,1.94v0.51
			c0,0.68-0.04,1.36-0.11,2.03h3.75v4.48h-4.79c-2.66,7.29-9.65,12.5-17.86,12.5h-17.23v-12.5h-5.21v-4.48h5.21v-4.48h-5.21v-4.48
			h5.21v-12.59h17.23c8.24,0,15.26,5.25,17.89,12.59h4.75V823.64z"/>
	</g>
	<g>
		<path class="st0" d="M779.49,707.61c12.85,0,24.92,2.36,36.2,7.08c11.28,4.72,21.14,11.22,29.56,19.51
			c8.43,8.29,15.09,18.01,19.99,29.17c4.9,11.15,7.36,23.16,7.36,36.03c0,8.58-1.12,16.78-3.36,24.59
			c-2.24,7.82-5.35,15.11-9.35,21.87c-4,6.77-8.83,12.89-14.49,18.37c-5.67,5.48-11.95,10.18-18.85,14.08
			c-6.9,3.91-14.31,6.93-22.21,9.08c-7.9,2.15-16.09,3.22-24.56,3.22H748.5c-2.95,0-5.48-1.02-7.57-3.07
			c-2.1-2.05-3.14-4.55-3.14-7.51V718.19c0-3.05,1.04-5.58,3.14-7.58c2.09-2,4.62-3,7.57-3H779.49z M851.16,799.46
			c0-9.92-1.86-19.15-5.58-27.69c-3.72-8.54-8.82-15.96-15.3-22.25c-6.48-6.3-14.08-11.24-22.8-14.81
			c-8.72-3.58-18.04-5.37-27.95-5.37h-20.3v139.82h20.3c9.91,0,19.23-1.76,27.95-5.29c8.72-3.53,16.32-8.4,22.8-14.6
			c6.48-6.2,11.58-13.57,15.3-22.11C849.3,818.62,851.16,809.39,851.16,799.46z"/>
		<path class="st0" d="M1053.67,716.11c2.43-2.43,5.41-3.65,8.94-3.65c3.52,0,6.5,1.21,8.93,3.65c2.43,2.43,3.65,5.41,3.65,8.93
			c0,3.43-1.22,6.39-3.65,8.86c-2.43,2.48-5.41,3.72-8.93,3.72c-3.53,0-6.51-1.24-8.94-3.72c-2.43-2.48-3.65-5.43-3.65-8.86
			C1050.02,721.52,1051.24,718.54,1053.67,716.11z M1073.32,879.88c0,2.95-1.03,5.48-3.07,7.58c-2.05,2.1-4.55,3.15-7.51,3.15
			c-2.96,0-5.5-1.05-7.65-3.15c-2.14-2.09-3.22-4.62-3.22-7.58V766.65c0-3.05,1.05-5.62,3.15-7.72c2.09-2.1,4.67-3.15,7.72-3.15
			c3.05,0,5.58,1.05,7.58,3.15c2,2.1,3,4.67,3,7.72V879.88z"/>
		<path class="st1" d="M1382.76,716.11c2.43-2.43,5.41-3.65,8.94-3.65c3.52,0,6.5,1.21,8.93,3.65c2.43,2.43,3.65,5.41,3.65,8.93
			c0,3.43-1.21,6.39-3.65,8.86c-2.43,2.48-5.41,3.72-8.93,3.72c-3.53,0-6.51-1.24-8.94-3.72c-2.43-2.48-3.65-5.43-3.65-8.86
			C1379.12,721.52,1380.33,718.54,1382.76,716.11z M1402.42,879.88c0,2.95-1.03,5.48-3.07,7.58c-2.05,2.1-4.55,3.15-7.51,3.15
			c-2.96,0-5.5-1.05-7.65-3.15c-2.14-2.09-3.22-4.62-3.22-7.58V766.65c0-3.05,1.05-5.62,3.15-7.72c2.1-2.1,4.67-3.15,7.72-3.15
			c3.05,0,5.58,1.05,7.58,3.15c2,2.1,3,4.67,3,7.72V879.88z"/>
		<path class="st1" d="M1545.81,887.74c-2.1,2-4.67,3-7.72,3c-2.96,0-5.46-1-7.51-3c-2.05-2-3.07-4.53-3.07-7.58v-58.04
			c0-7.05-0.81-13.34-2.43-18.87c-1.62-5.53-3.96-10.22-7-14.08c-3.05-3.86-6.79-6.79-11.22-8.79c-4.43-2-9.41-3-14.94-3
			c-5.43,0-10.51,1.07-15.23,3.22c-4.72,2.14-8.84,5.1-12.37,8.86c-3.53,3.76-6.36,8.2-8.51,13.3c-2.14,5.1-3.31,10.6-3.5,16.51
			v60.62c0,2.95-1.03,5.48-3.07,7.58c-2.05,2.1-4.55,3.15-7.51,3.15c-2.96,0-5.5-1.05-7.65-3.15c-2.14-2.09-3.22-4.62-3.22-7.58
			V766.65c0-3.05,1.05-5.62,3.15-7.72c2.09-2.1,4.67-3.15,7.72-3.15c3.05,0,5.58,1.05,7.58,3.15c2,2.1,3,4.67,3,7.72v10.72
			c5.53-6.58,11.89-11.79,19.09-15.65c7.19-3.86,14.84-5.79,22.95-5.79c8.29,0,15.77,1.57,22.45,4.72
			c6.67,3.15,12.39,7.6,17.16,13.37c4.76,5.77,8.46,12.68,11.08,20.73c2.62,8.06,3.93,16.99,3.93,26.81v58.61
			C1548.96,883.22,1547.91,885.74,1545.81,887.74z"/>
		<path class="st0" d="M1017.78,797.06c-3.57-8.19-8.43-15.31-14.58-21.35c-6.15-6.04-13.32-10.83-21.52-14.35
			c-8.2-3.52-16.97-5.29-26.31-5.29c-9.34,0-18.16,1.79-26.45,5.36c-8.29,3.57-15.54,8.43-21.73,14.57
			c-6.2,6.14-11.08,13.35-14.65,21.64c-3.57,8.28-5.36,17.14-5.36,26.56c0,9.43,1.79,18.26,5.36,26.49
			c3.57,8.24,8.46,15.45,14.65,21.64c6.19,6.19,13.44,11.07,21.73,14.64c8.29,3.57,17.11,5.35,26.45,5.35
			c9.05,0,17.54-1.82,25.45-5.47c3.73-1.72,7.25-3.7,10.57-5.94v-27.06c-0.91,1.1-1.86,2.17-2.87,3.2
			c-4.2,4.25-9.14,7.61-14.82,10.09c-5.68,2.48-11.81,3.72-18.4,3.72c-6.49,0-12.58-1.24-18.26-3.72
			c-5.68-2.48-10.62-5.85-14.82-10.09c-4.2-4.25-7.52-9.19-9.95-14.82c-2.43-5.63-3.65-11.64-3.65-18.04
			c0-6.49,1.22-12.58,3.65-18.26c2.44-5.68,5.75-10.62,9.95-14.82c4.2-4.2,9.14-7.52,14.82-9.95c5.68-2.43,11.76-3.65,18.26-3.65
			c6.58,0,12.72,1.22,18.4,3.65c5.68,2.44,10.62,5.75,14.82,9.95c4.2,4.2,7.49,9.14,9.88,14.82c2.26,5.39,3.44,11.14,3.56,17.25
			h0.02v56.34c0,3.03,0.98,5.63,2.93,7.81c1.95,2.18,4.45,3.26,7.51,3.26c3.15,0,5.77-1.1,7.86-3.28c2.09-2.19,3.15-4.81,3.15-7.86
			v-56.13C1023.24,814.01,1021.36,805.25,1017.78,797.06z"/>
		<path class="st1" d="M1355.21,797.52c-0.44-1.05-0.91-2.1-1.4-3.12c-10.21-21.17-32.04-36.25-55.45-38.32
			c-12.32-1.09-25.05,1.3-35.75,7.52c-16.11,9.36-26.24,26.2-34.62,42.84c-8.38,16.63-16.02,34.2-29.33,47.23
			c-10.12,9.91-23.71,16.81-37.87,16.75c-14.16-0.06-28.05-7.36-36.32-18.85c-8.28-11.49-10.82-26.84-6.94-40.46
			c3.88-13.62,14.17-25.36,27.31-30.63c13.15-5.27,28.88-3.82,40.64,4.08c3.42,2.3,6.54,5.12,10.27,6.88
			c3.73,1.77,8.4,2.32,11.83,0.03c4.06-2.71,4.98-8.62,3.18-13.16c-1.8-4.54-5.68-7.92-9.71-10.67
			c-37.24-25.44-89-7.54-103.69,34.58c-2.71,7.78-4.06,16.06-3.77,24.3c0.94,26.1,18.19,50.91,42.33,60.87
			c17.44,7.2,38.01,6.72,54.87-1.75c22.73-11.41,36.44-34.99,47.52-57.89c4.61-9.53,9.03-19.23,15.15-27.87
			c6.12-8.64,14.15-16.28,24.04-20.04c8.25-3.14,17.48-3.42,26.02-1.22c21.97,5.66,37.87,29.07,34.89,51.56
			c-2.97,22.49-24.52,41-47.2,40.43c-19.31-0.49-37.13-14.83-42.92-33.06l-14.33,21.74c11.59,19.05,32.94,31.89,55.24,32.93
			c23.47,1.09,47.13-10.94,60.08-30.55C1361.6,842.99,1363.81,818.12,1355.21,797.52z"/>
	</g>
</g>
</svg>
