<svg id="visual" viewBox="0 0 900 600" width="900" height="600" xmlns="http://www.w3.org/2000/svg" xmlns:xlink="http://www.w3.org/1999/xlink" version="1.1"><rect x="0" y="0" width="900" height="600" fill="#1DAE9E"></rect><defs><linearGradient id="grad1_0" x1="33.3%" y1="0%" x2="100%" y2="100%"><stop offset="20%" stop-color="#1dae9e" stop-opacity="1"></stop><stop offset="80%" stop-color="#1dae9e" stop-opacity="1"></stop></linearGradient></defs><defs><linearGradient id="grad2_0" x1="0%" y1="0%" x2="66.7%" y2="100%"><stop offset="20%" stop-color="#1dae9e" stop-opacity="1"></stop><stop offset="80%" stop-color="#1dae9e" stop-opacity="1"></stop></linearGradient></defs><g transform="translate(900, 0)"><path d="M0 486.7C-69.5 486.7 -139.1 486.7 -186.3 449.7C-233.5 412.7 -258.3 338.8 -285.7 285.7C-313.1 232.6 -343 200.3 -376.9 156.1C-410.9 112 -448.8 56 -486.7 0L0 0Z" fill="#EAFBFC"></path></g><g transform="translate(0, 600)"><path d="M0 -486.7C48.1 -440.6 96.2 -394.5 155.8 -376C215.3 -357.5 286.2 -366.6 339.4 -339.4C392.6 -312.3 428.1 -248.9 449.7 -186.3C471.3 -123.7 479 -61.8 486.7 0L0 0Z" fill="#EAFBFC"></path></g></svg>